<svg width="20" height="16" viewBox="0 0 20 16" stroke="#fff" stroke-width="0.5px" fill="none" xmlns="http://www.w3.org/2000/svg">
<path d="M6.06562 14.9434L12.5656 0.443394C12.7351 0.0654203 13.1788 -0.103633 13.5568 0.0658038C13.9033 0.221121 14.0742 0.606949 13.9698 0.961311L13.9344 1.05698L7.43438 15.557C7.26495 15.935 6.82118 16.104 6.44321 15.9346C6.09673 15.7793 5.92581 15.3934 6.03024 15.0391L6.06562 14.9434L12.5656 0.443394L6.06562 14.9434ZM0.21967 7.46986L4.46967 3.21986C4.76256 2.92696 5.23744 2.92696 5.53033 3.21986C5.7966 3.48612 5.8208 3.90279 5.60295 4.1964L5.53033 4.28052L1.81066 8.00019L5.53033 11.7199C5.82322 12.0127 5.82322 12.4876 5.53033 12.7805C5.26406 13.0468 4.8474 13.071 4.55379 12.8531L4.46967 12.7805L0.21967 8.53052C-0.0465967 8.26425 -0.0708026 7.84759 0.147052 7.55397L0.21967 7.46986L4.46967 3.21986L0.21967 7.46986ZM14.4697 3.21986C14.7359 2.95359 15.1526 2.92938 15.4462 3.14724L15.5303 3.21986L19.7803 7.46986C20.0466 7.73612 20.0708 8.15279 19.8529 8.4464L19.7803 8.53052L15.5303 12.7805C15.2374 13.0734 14.7626 13.0734 14.4697 12.7805C14.2034 12.5143 14.1792 12.0976 14.3971 11.804L14.4697 11.7199L18.1893 8.00019L14.4697 4.28052C14.1768 3.98762 14.1768 3.51275 14.4697 3.21986Z" fill="#565656"/>
</svg>
