<svg width="114" height="87" viewBox="0 0 114 87" fill="none" xmlns="http://www.w3.org/2000/svg">
<path d="M96.1524 7.17769C88.9502 3.85545 81.2269 1.40777 73.1517 0.00588074C73.0046 -0.0211753 72.8577 0.0464391 72.782 0.181671C71.7887 1.95769 70.6884 4.27465 69.918 6.09577C61.2326 4.78857 52.5917 4.78857 44.0844 6.09577C43.3138 4.23417 42.1736 1.95769 41.1759 0.181671C41.1001 0.0509511 40.9532 -0.0166633 40.8062 0.00588074C32.7354 1.40329 25.0121 3.85097 17.8054 7.17769C17.743 7.20473 17.6895 7.24985 17.654 7.30841C3.00455 29.3106 -1.00856 50.7721 0.960137 71.9675C0.969045 72.0711 1.02695 72.1703 1.10712 72.2334C10.7724 79.369 20.135 83.7011 29.3236 86.5724C29.4707 86.6175 29.6265 86.5635 29.7201 86.4417C31.8936 83.4577 33.8312 80.3113 35.4924 77.0025C35.5905 76.8087 35.4969 76.5788 35.2965 76.5022C32.2232 75.3302 29.2969 73.9012 26.4819 72.2785C26.2592 72.1478 26.2414 71.8276 26.4462 71.6743C27.0386 71.2281 27.6311 70.7638 28.1968 70.295C28.2991 70.2094 28.4417 70.1913 28.562 70.2454C47.0552 78.7335 67.0763 78.7335 85.3512 70.2454C85.4716 70.1868 85.6142 70.2049 85.7209 70.2905C86.2867 70.7593 86.8791 71.2281 87.476 71.6743C87.6808 71.8276 87.6674 72.1478 87.4448 72.2785C84.6298 73.9327 81.7034 75.3302 78.6257 76.4977C78.4253 76.5743 78.3362 76.8087 78.4342 77.0025C80.1311 80.3067 82.0687 83.4531 84.2021 86.4372C84.2913 86.5635 84.4515 86.6175 84.5986 86.5724C93.8318 83.7011 103.194 79.369 112.86 72.2334C112.944 72.1703 112.998 72.0756 113.007 71.9719C115.363 47.4678 109.06 26.1823 96.2993 7.31289C96.2681 7.24985 96.2148 7.20473 96.1524 7.17769ZM38.2541 59.0617C32.6864 59.0617 28.0987 53.923 28.0987 47.6121C28.0987 41.3012 32.5974 36.1625 38.2541 36.1625C43.9552 36.1625 48.4984 41.3463 48.4093 47.6121C48.4093 53.923 43.9106 59.0617 38.2541 59.0617ZM75.8018 59.0617C70.2342 59.0617 65.6466 53.923 65.6466 47.6121C65.6466 41.3012 70.1451 36.1625 75.8018 36.1625C81.503 36.1625 86.0461 41.3463 85.9571 47.6121C85.9571 53.923 81.503 59.0617 75.8018 59.0617Z" fill="#7289D9"/>
</svg>
