<svg width="22" height="18" viewBox="0 0 22 18" stroke="#fff" stroke-width="0.6px" fill="none" xmlns="http://www.w3.org/2000/svg">
<path d="M8.90878 0.69964C10.1832 -0.117327 11.8168 -0.117329 13.0912 0.699639L21.1548 5.86861C21.3689 6.0059 21.4989 6.24238 21.5 6.49677C21.5011 6.75116 21.3732 6.98876 21.1602 7.1279L18 9.19255V14.75C18 14.9122 17.9474 15.0701 17.85 15.2L17.8489 15.2014L17.8477 15.2031L17.8446 15.2071L17.8364 15.2178C17.8321 15.2233 17.8269 15.2298 17.8209 15.2373C17.8179 15.2411 17.8146 15.2452 17.8111 15.2495C17.7904 15.2751 17.7619 15.3095 17.7253 15.3513C17.6522 15.4348 17.5469 15.5483 17.4081 15.6816C17.1305 15.9481 16.7176 16.2948 16.1587 16.6387C15.0359 17.3297 13.3387 18 11 18C8.66127 18 6.96408 17.3297 5.8413 16.6387C5.2824 16.2948 4.86951 15.9481 4.59193 15.6816C4.45308 15.5483 4.34778 15.4348 4.27468 15.3513C4.23204 15.3025 4.1901 15.2531 4.15107 15.2014C4.14956 15.1994 4.15 15.2 4.15 15.2C4.05263 15.0701 4 14.9122 4 14.75V9.19255L2 7.88589V13.25C2 13.6642 1.66421 14 1.25 14C0.835786 14 0.5 13.6642 0.5 13.25V6.49997C0.5 6.22949 0.643177 5.99246 0.857875 5.86052L8.90878 0.69964ZM13.1194 12.3812C11.8317 13.2225 10.1683 13.2225 8.88058 12.3812L5.5 10.1725V14.4687C5.5368 14.5072 5.58034 14.5512 5.63073 14.5996C5.84143 14.8018 6.17072 15.0802 6.62745 15.3612C7.53592 15.9203 8.96373 16.5 11 16.5C13.0363 16.5 14.4641 15.9203 15.3726 15.3612C15.8293 15.0802 16.1586 14.8018 16.3693 14.5996C16.4197 14.5512 16.4632 14.5072 16.5 14.4687V10.1725L13.1194 12.3812ZM12.2817 1.96246C11.5006 1.46173 10.4994 1.46173 9.71829 1.96246L2.63041 6.506L9.701 11.1254C10.4902 11.6411 11.5098 11.6411 12.299 11.1254L19.3696 6.506L12.2817 1.96246Z" fill="#565656"/>
</svg>
