<svg width="110" height="109" viewBox="0 0 110 109" fill="none" xmlns="http://www.w3.org/2000/svg">
<path d="M101.601 0H8.86493C4.43005 0 0.831055 3.51435 0.831055 7.8419V100.979C0.831055 105.312 4.43005 108.831 8.86493 108.831H101.601C106.039 108.831 109.662 105.312 109.662 100.979V7.8419C109.662 3.51435 106.039 0 101.601 0ZM33.1086 92.7394H16.9593V40.8042H33.1086V92.7394ZM25.0339 33.703C19.8599 33.703 15.6775 29.5099 15.6775 24.3404C15.6775 19.1785 19.8599 14.9855 25.0339 14.9855C30.1959 14.9855 34.3889 19.1785 34.3889 24.3404C34.3889 29.5099 30.1959 33.703 25.0339 33.703ZM93.5644 92.7394H77.4408V67.4845C77.4408 61.4595 77.3229 53.7128 69.0502 53.7128C60.649 53.7128 59.3687 60.2744 59.3687 67.0477V92.7409H43.233V40.8042H58.7188V47.8964H58.9394C61.0949 43.8152 66.3611 39.5088 74.2151 39.5088C90.5489 39.5088 93.5659 50.2619 93.5659 64.2513V92.7394H93.5644Z" fill="#0C63BC"/>
</svg>
