<svg width="433" height="227" viewBox="0 0 433 227" fill="none" xmlns="http://www.w3.org/2000/svg">
<path fill-rule="evenodd" clip-rule="evenodd" d="M4.80895 225.032C3.02677 225.718 1.41873 226.352 0 226.92H2.71272C3.48948 226.615 4.30865 226.296 5.16851 225.965C12.8237 223.015 23.7029 219.082 36.5956 215.148C37.5144 214.868 38.4433 214.588 39.3821 214.308C39.259 214.95 39.1405 215.579 39.0263 216.194C38.2296 220.489 37.6461 224.119 37.2336 226.92H38.2444C38.6539 224.151 39.229 220.584 40.0096 216.377C40.1534 215.601 40.3041 214.805 40.4621 213.987C61.6891 207.714 87.7401 201.694 113.678 199.934C113.13 202.949 112.638 205.81 112.199 208.497C110.951 216.124 110.124 222.342 109.609 226.654L109.577 226.92H110.584L110.602 226.773C111.115 222.473 111.941 216.27 113.186 208.658C113.636 205.904 114.142 202.966 114.707 199.867C119.282 199.576 123.851 199.42 128.387 199.42C145.251 199.42 161.201 201.437 176.64 204.441C174.66 207.941 172.666 211.132 170.734 214.006C167.063 219.466 163.612 223.785 160.887 226.92H162.208C164.861 223.822 168.116 219.691 171.564 214.564C173.563 211.591 175.626 208.282 177.674 204.644C192.533 207.581 206.927 211.413 221.218 215.218L221.222 215.219C225.117 216.256 229.005 217.291 232.893 218.306C245.594 221.62 258.289 224.711 271.224 226.92H277.595C262.555 224.714 247.871 221.18 233.146 217.338C229.269 216.326 225.389 215.293 221.499 214.258L221.496 214.257L221.493 214.256L221.49 214.255L221.487 214.254L221.484 214.254L221.481 214.253L221.478 214.252C207.296 210.475 192.978 206.663 178.187 203.726C184.656 192.04 190.902 177.066 194.378 159.014C201.915 119.874 209.76 90.3301 219.396 68.8477C246.393 74.7455 274.706 84.2414 301.578 94.9166C336.994 108.986 369.883 125.095 393.921 137.687C405.939 143.983 415.743 149.4 422.542 153.242C425.941 155.163 428.589 156.69 430.387 157.737C431.286 158.26 431.972 158.664 432.433 158.936C432.519 158.986 432.597 159.033 432.667 159.074C432.752 159.124 432.825 159.168 432.887 159.204V158.042C432.783 157.981 432.668 157.913 432.543 157.84C432.429 157.773 432.308 157.701 432.177 157.625C431.813 157.411 431.384 157.16 430.89 156.873C429.089 155.824 426.437 154.294 423.034 152.371C416.227 148.525 406.414 143.103 394.385 136.802C370.328 124.199 337.406 108.074 301.947 93.9872C275.12 83.3298 246.828 73.834 219.818 67.9163C222.199 62.6931 224.69 57.9558 227.313 53.6814C235.623 40.1406 252.538 33.7891 273.435 31.9649C294.31 30.1426 319.016 32.8522 342.701 37.2864C366.381 41.7195 389.011 47.8705 405.723 52.9143C414.079 55.4359 420.953 57.6804 425.739 59.2941C428.131 60.101 430.001 60.7502 431.273 61.1975C431.909 61.4212 432.395 61.5944 432.722 61.7116L432.887 61.7709V60.7086C432.569 60.5948 432.139 60.4422 431.605 60.2542C430.329 59.8055 428.455 59.1549 426.058 58.3466C421.264 56.7299 414.379 54.4821 406.012 51.9569C389.279 46.9069 366.612 40.7454 342.885 36.3035C319.165 31.8627 294.355 29.1348 273.348 30.9687C252.362 32.8007 235.027 39.1993 226.461 53.1584C223.783 57.5227 221.243 62.362 218.818 67.6988C210.475 65.8962 202.258 64.4387 194.249 63.3976C185.291 62.2334 176.585 61.5889 168.246 61.5671C178.415 47.9093 190.296 35.9137 204.161 26.8384C217.819 17.8983 238.951 11.9111 263.03 7.976C287.094 4.04343 314.038 2.16947 339.277 1.41979C364.514 0.670178 388.034 1.04495 405.246 1.60721C413.851 1.88834 420.879 2.2163 425.755 2.47396C428.193 2.60279 430.093 2.71403 431.383 2.79305C432.029 2.83256 432.521 2.86402 432.852 2.88558L432.887 2.88785V1.88573C432.555 1.86416 432.072 1.83333 431.445 1.79492C430.152 1.71574 428.249 1.60434 425.808 1.47535C420.926 1.21739 413.892 0.889115 405.279 0.607747C388.053 0.0450296 364.511 -0.330174 339.247 0.420235C313.986 1.17059 286.993 3.04665 262.869 6.98909C238.761 10.929 217.455 16.9418 203.613 26.0017C189.435 35.2818 177.328 47.5805 167 61.5684C144.007 61.6806 123.876 66.6071 109.074 78.5305C78.0365 103.532 59.8731 142.268 49.4682 174.7C44.7367 189.448 41.605 202.906 39.5961 213.201C38.4849 213.531 37.3872 213.861 36.3038 214.192C23.384 218.133 12.4819 222.075 4.80895 225.032ZM193.396 158.825C200.91 119.805 208.745 90.2223 218.398 68.6311C210.153 66.8549 202.033 65.4179 194.12 64.3892C184.923 63.1939 176.012 62.5512 167.507 62.5666C148.309 88.7142 135.287 120.772 126.555 150.067C121.189 168.067 117.45 185.005 114.893 198.853C119.405 198.571 123.911 198.42 128.387 198.42C145.441 198.42 161.565 200.475 177.156 203.523C183.638 191.875 189.915 176.904 193.396 158.825ZM125.597 149.781C134.27 120.684 147.197 88.7575 166.263 62.5736C143.725 62.7866 124.111 67.7016 109.701 79.3093C78.89 104.128 60.8034 142.642 50.4204 175.005C45.7811 189.465 42.6842 202.684 40.6778 212.881C61.9186 206.63 87.9424 200.65 113.864 198.919C116.427 184.998 120.187 167.93 125.597 149.781Z" fill="#d0ddfe"/>
</svg>
