<svg width="18" height="21" viewBox="0 0 18 21" stroke="#fff" stroke-width="0.5px" fill="none" xmlns="http://www.w3.org/2000/svg">
<path d="M5.3974 9.23526C5.80357 9.15404 6.06699 8.75892 5.98576 8.35275C5.90454 7.94658 5.50943 7.68316 5.10325 7.76439C4.19986 7.94505 3.51776 8.57601 3.15473 9.42316C2.7955 10.2614 2.7422 11.3093 3.02255 12.4316C3.12294 12.8335 3.5301 13.0779 3.93196 12.9775C4.33383 12.8771 4.57822 12.4699 4.47783 12.0681C4.25856 11.1903 4.33026 10.4882 4.53347 10.014C4.73288 9.54865 5.05066 9.3046 5.3974 9.23526ZM2.47146 1.41974C2.38955 2.80582 2.8618 4.22131 3.88864 5.30216C2.01112 5.84179 0.517953 7.43954 0.22815 9.51812C-0.10026 11.8736 0.383872 14.2707 1.60072 16.3141L1.95173 16.9036C1.96474 16.9254 1.97885 16.9466 1.994 16.967L3.40996 18.8737C4.68641 20.5926 7.20132 20.7525 8.68526 19.2092C8.85704 19.0306 9.14291 19.0306 9.31469 19.2092C10.7986 20.7525 13.3135 20.5926 14.59 18.8737L16.0059 16.967C16.0211 16.9466 16.0352 16.9254 16.0482 16.9036L16.3992 16.3141C17.6161 14.2707 18.1002 11.8736 17.7718 9.51812C17.3631 6.58675 14.5611 4.61171 11.6629 5.21217L9.76077 5.60627L9.75769 5.6069C9.78807 4.82706 9.90973 3.98603 10.149 3.26825C10.4383 2.40029 10.8411 1.87851 11.2884 1.69213C11.6708 1.53282 11.8516 1.09372 11.6923 0.711364C11.533 0.329013 11.0939 0.148205 10.7115 0.307518C9.65882 0.74614 9.06164 1.78686 8.72596 2.79391C8.71029 2.84093 8.69505 2.88826 8.68025 2.93585C8.44046 2.47142 8.12593 2.03555 7.73665 1.64627C6.64409 0.55371 5.18457 0.0499814 3.75636 0.13462C3.06327 0.175693 2.51241 0.726651 2.47146 1.41974ZM3.96373 1.62686C4.94351 1.60009 5.92931 1.96026 6.67599 2.70693C7.4225 3.45344 7.78266 4.43898 7.75608 5.41855C7.57472 5.42351 7.39315 5.4152 7.21293 5.39364L6.596 5.26582C6.02771 5.09638 5.49258 4.78724 5.04382 4.33848C4.29731 3.59197 3.93714 2.60643 3.96373 1.62686ZM6.03272 6.68098L6.23508 6.7229C6.47508 6.79089 6.71898 6.84128 6.96471 6.87407L7.93486 7.07508C8.63748 7.22065 9.36247 7.22065 10.0651 7.07508L11.9672 6.68098C14.0162 6.25645 15.9972 7.6528 16.2862 9.72525C16.5675 11.743 16.1528 13.7963 15.1104 15.5466L14.7789 16.1033L13.3857 17.9794C12.6623 18.9536 11.237 19.0442 10.3959 18.1695C9.63399 17.3771 8.36596 17.3771 7.60401 18.1695C6.76298 19.0442 5.33765 18.9536 4.61421 17.9794L3.221 16.1033L2.88951 15.5466C1.84717 13.7963 1.43247 11.743 1.71378 9.72525C2.00273 7.6528 3.98373 6.25645 6.03272 6.68098Z" fill="#565656"/>
</svg>
