<svg width="110" height="109" viewBox="0 0 110 109" fill="none" xmlns="http://www.w3.org/2000/svg">
<path d="M103.487 0H6.669C3.35115 0 0.662109 2.68904 0.662109 6.00689V102.826C0.662109 106.142 3.35115 108.831 6.669 108.831H58.7917V66.6864H44.6088V50.2619H58.7917V38.1484C58.7917 24.091 67.3772 16.4381 79.917 16.4381C85.9239 16.4381 91.0858 16.884 92.5913 17.085V31.7757L83.8939 31.7803C77.0738 31.7803 75.7542 35.021 75.7542 39.7763V50.2635H92.0185L89.9008 66.6879H75.7542V108.831H103.488C106.804 108.831 109.493 106.142 109.493 102.824V6.00689C109.493 2.68904 106.804 0 103.487 0Z" fill="#3B5998"/>
</svg>
