<svg width="53" height="52" viewBox="0 0 53 52" fill="none" xmlns="http://www.w3.org/2000/svg">
<path d="M26.3172 0C22.8611 0 19.439 0.680714 16.246 2.00327C13.0531 3.32584 10.1519 5.26434 7.70812 7.70812C2.77269 12.6435 0 19.3374 0 26.3172C0 37.9493 7.55303 47.8183 18.0009 51.3185C19.3168 51.529 19.7379 50.7132 19.7379 50.0026C19.7379 49.3973 19.7379 47.7393 19.7379 45.555C12.448 47.134 10.8953 42.0285 10.8953 42.0285C9.68471 38.9757 7.9741 38.1599 7.9741 38.1599C5.57924 36.5282 8.15832 36.5809 8.15832 36.5809C10.79 36.7651 12.1848 39.2915 12.1848 39.2915C14.4744 43.2917 18.3431 42.1075 19.8431 41.4758C20.08 39.7652 20.7642 38.6073 21.5011 37.9493C15.6587 37.2914 9.52681 35.0281 9.52681 25.0013C9.52681 22.0801 10.5269 19.7379 12.2375 17.8694C11.9743 17.2114 11.0532 14.4744 12.5007 10.9216C12.5007 10.9216 14.7113 10.2111 19.7379 13.606C21.8169 13.027 24.0802 12.7375 26.3172 12.7375C28.5541 12.7375 30.8174 13.027 32.8965 13.606C37.923 10.2111 40.1337 10.9216 40.1337 10.9216C41.5811 14.4744 40.66 17.2114 40.3968 17.8694C42.1075 19.7379 43.1075 22.0801 43.1075 25.0013C43.1075 35.0545 36.9493 37.2651 31.0806 37.923C32.028 38.7389 32.8965 40.3442 32.8965 42.7917V50.0026C32.8965 50.7132 33.3175 51.5553 34.6597 51.3185C45.1076 47.792 52.6343 37.9493 52.6343 26.3172C52.6343 22.8611 51.9536 19.439 50.631 16.246C49.3085 13.0531 47.37 10.1519 44.9262 7.70812C42.4824 5.26434 39.5812 3.32584 36.3883 2.00327C33.1954 0.680714 29.7732 0 26.3172 0Z" fill="black"/>
</svg>
