<svg width="131" height="98" viewBox="0 0 131 98" fill="none" xmlns="http://www.w3.org/2000/svg">
<path d="M9.52575 98.0001H30.2076V48.0304L0.662109 25.985V89.1819C0.662109 94.0613 4.63597 98.0001 9.52575 98.0001Z" fill="#4285F4"/>
<path d="M101.117 98.0001H121.798C126.703 98.0001 130.662 94.0466 130.662 89.1819V25.985L101.117 48.0304" fill="#34A853"/>
<path d="M101.117 9.8183V48.0304L130.662 25.985V14.2274C130.662 3.32223 118.15 -2.89458 109.389 3.64557" fill="#FBBC04"/>
<path d="M0.662109 14.2274V25.985L30.2076 48.0304V9.8183L21.9348 3.64557C13.1598 -2.89458 0.662109 3.32223 0.662109 14.2274Z" fill="#C5221F"/>
<path d="M101.117 48.0304V9.8183L65.6621 36.2728L30.2076 9.8183V48.0304L65.6621 74.485L101.117 48.0304Z" fill="#EA4335"/>
</svg>
