<svg width="20" height="16" viewBox="0 0 20 16" fill="none" xmlns="http://www.w3.org/2000/svg">
<path d="M16.75 16H3.25C1.51697 16 0.100754 14.6435 0.00514483 12.9344L0 12.75V2.25C0 1.05914 0.925161 0.0843551 2.09595 0.00519085L2.25 0H14.75C15.9409 0 16.9156 0.925161 16.9948 2.09595L17 2.25V3H17.75C18.9409 3 19.9156 3.92516 19.9948 5.09595L20 5.25V12.75C20 14.483 18.6435 15.8992 16.9344 15.9949L16.75 16H3.25H16.75ZM3.25 14.5H16.75C17.6682 14.5 18.4212 13.7929 18.4942 12.8935L18.5 12.75V5.25C18.5 4.8703 18.2178 4.55651 17.8518 4.50685L17.75 4.5H17V12.25C17 12.6297 16.7178 12.9435 16.3518 12.9932L16.25 13C15.8703 13 15.5565 12.7178 15.5068 12.3518L15.5 12.25V2.25C15.5 1.8703 15.2178 1.55651 14.8518 1.50685L14.75 1.5H2.25C1.8703 1.5 1.55651 1.78215 1.50685 2.14823L1.5 2.25V12.75C1.5 13.6682 2.20711 14.4212 3.10647 14.4942L3.25 14.5H16.75H3.25ZM10.246 10.5H13.2522C13.6665 10.5 14.0022 10.8358 14.0022 11.25C14.0022 11.6297 13.7201 11.9435 13.354 11.9932L13.2522 12H10.246C9.8318 12 9.49601 11.6642 9.49601 11.25C9.49601 10.8703 9.77816 10.5565 10.1442 10.5068L10.246 10.5H13.2522H10.246ZM7.24328 7.00448C7.6575 7.00448 7.99328 7.34026 7.99328 7.75448V11.25C7.99328 11.6642 7.6575 12 7.24328 12H3.74776C3.33355 12 2.99776 11.6642 2.99776 11.25V7.75448C2.99776 7.34026 3.33355 7.00448 3.74776 7.00448H7.24328ZM6.49328 8.50448H4.49776V10.5H6.49328V8.50448ZM10.246 7.00448H13.2522C13.6665 7.00448 14.0022 7.34026 14.0022 7.75448C14.0022 8.13417 13.7201 8.44797 13.354 8.49763L13.2522 8.50448H10.246C9.8318 8.50448 9.49601 8.16869 9.49601 7.75448C9.49601 7.37478 9.77816 7.06099 10.1442 7.01132L10.246 7.00448H13.2522H10.246ZM3.74776 3.50247H13.2522C13.6665 3.50247 14.0022 3.83826 14.0022 4.25247C14.0022 4.63217 13.7201 4.94596 13.354 4.99563L13.2522 5.00247H3.74776C3.33355 5.00247 2.99776 4.66669 2.99776 4.25247C2.99776 3.87278 3.27991 3.55898 3.64599 3.50932L3.74776 3.50247H13.2522H3.74776Z" fill="#f7f7f7"/>
</svg>
