<svg width="434" height="234" viewBox="0 0 434 234" fill="none" xmlns="http://www.w3.org/2000/svg">
<path d="M0.5 227.5C0.5 227.5 77.3619 201.734 128.5 199C204.406 194.941 262.005 239.905 337 227.5C384.436 219.654 433.5 190 433.5 190M109.5 233.5C109.5 233.5 122.503 79.8436 204 26.5C259 -9.49998 433.5 2.49992 433.5 2.49992M37 233.5C37 233.5 47.6522 128.82 109.5 78.9999C190.5 13.7519 433.5 159 433.5 159M155.5 233.5C155.5 233.5 184.698 207.306 194 159C203.5 109.668 213.5 75.4999 227 53.4999C260.75 -1.50013 433.5 61.4999 433.5 61.4999" stroke="black"/>
</svg>
