<svg width="109" height="89" viewBox="0 0 109 89" fill="none" xmlns="http://www.w3.org/2000/svg">
<path d="M108.831 10.4729C104.829 12.2463 100.53 13.4446 96.0099 13.9862C100.621 11.2254 104.158 6.8445 105.826 1.62964C101.512 4.18914 96.7336 6.04885 91.6482 7.04581C87.5741 2.71288 81.7745 0 75.3518 0C63.024 0 53.0257 9.99834 53.0257 22.3357C53.0257 24.0804 53.227 25.7771 53.6008 27.4163C35.0373 26.4817 18.5923 17.5906 7.57783 4.08369C5.6606 7.39091 4.5582 11.2254 4.5582 15.3091C4.5582 23.0547 8.50289 29.8944 14.4894 33.8966C10.8275 33.7767 7.38611 32.775 4.37606 31.1022V31.3898C4.37606 42.2077 12.0689 51.2331 22.2878 53.2845C20.4089 53.7926 18.4389 54.061 16.4067 54.061C14.9687 54.061 13.5644 53.9268 12.2031 53.6679C15.0454 62.5351 23.2895 68.9962 33.0626 69.1687C25.4176 75.1601 15.7884 78.7309 5.32988 78.7309C3.52769 78.7309 1.74946 78.6254 0 78.4193C9.8833 84.7606 21.6167 88.4512 34.2225 88.4512C75.299 88.4512 97.7546 54.43 97.7546 24.924C97.7546 23.9653 97.7306 22.9971 97.6875 22.0385C102.049 18.8847 105.836 14.9592 108.822 10.4872L108.831 10.4729Z" fill="#1DA1F2"/>
</svg>
