<svg width="12" height="17" viewBox="0 0 12 17" fill="none" xmlns="http://www.w3.org/2000/svg">
<path fill-rule="evenodd" clip-rule="evenodd" d="M0.5 6C0.5 2.96243 2.96243 0.5 6 0.5C9.03757 0.5 11.5 2.96243 11.5 6V11C11.5 14.0376 9.03757 16.5 6 16.5C2.96243 16.5 0.5 14.0376 0.5 11V6ZM6 1.5C3.51472 1.5 1.5 3.51472 1.5 6V11C1.5 13.4853 3.51472 15.5 6 15.5C8.48528 15.5 10.5 13.4853 10.5 11V6C10.5 3.51472 8.48528 1.5 6 1.5ZM6 3.5C6.27614 3.5 6.5 3.72386 6.5 4V7.5C6.5 7.77614 6.27614 8 6 8C5.72386 8 5.5 7.77614 5.5 7.5V4C5.5 3.72386 5.72386 3.5 6 3.5Z" fill="#3781FD"/>
</svg>
