<svg width="32" height="32" viewBox="0 0 20 20" fill="none" xmlns="http://www.w3.org/2000/svg">
<path fill-rule="evenodd" clip-rule="evenodd" d="M0.5 10C0.5 4.75329 4.75329 0.5 10 0.5C15.2467 0.5 19.5 4.75329 19.5 10C19.5 15.2467 15.2467 19.5 10 19.5C4.75329 19.5 0.5 15.2467 0.5 10ZM10 1.5C5.30558 1.5 1.5 5.30558 1.5 10C1.5 14.6944 5.30558 18.5 10 18.5C14.6944 18.5 18.5 14.6944 18.5 10C18.5 5.30558 14.6944 1.5 10 1.5ZM9 5.5215C9 4.96921 9.44771 4.5215 10 4.5215C10.5523 4.5215 11 4.96921 11 5.5215C11 6.07378 10.5523 6.5215 10 6.5215C9.44771 6.5215 9 6.07378 9 5.5215ZM10 8.0215C10.2761 8.0215 10.5 8.24535 10.5 8.5215V15.0215C10.5 15.2976 10.2761 15.5215 10 15.5215C9.72386 15.5215 9.5 15.2976 9.5 15.0215V8.5215C9.5 8.24535 9.72386 8.0215 10 8.0215Z" fill="#4a4a4a"/>
</svg>
